<?xml version="1.0" encoding="UTF-8"?><svg id="Layer_1" xmlns="http://www.w3.org/2000/svg" width="11.617in" height="11.675in" viewBox="0 0 836.429 840.581"><path id="path3" d="M834.813,159.672c6.704,70.53-7.99,137.478-34.253,202.13-75.766,186.702-196.712,340.068-348.792,470.383-10.193,8.725-18.091,12.306-30.857,2.571C239.627,696.636,95.262,530.229,21.977,310.466,2.6,252.334-6.125,191.998,4.713,130.009,22.989,25.776,115.466-26.387,214.098,13.286c74.754,30.031,122.233,88.07,158.51,157.131,23.693,45.091,38.113,93.58,50.419,147.764,12.032-35.724,21.673-66.948,32.97-97.622,20.019-54.459,51.061-101.846,94.865-140.325,37.928-33.336,81.458-54.091,132.885-55.468,82.102-2.204,143.171,52.53,151.069,134.907h-.003Z" fill="#010101"/></svg>